{"title":"Champions League x Real Madrid x Bayern Munich x 1-0 x Full Matc","uid":10029449,"size":1194411078,"categoryP":"video","categoryS":"other","magnet":"?xt=urn:btih:674f79210447f7c3fe8758512767df8302e0f4d8&amp;dn=Champions+League+x+Real+Madrid+x+Bayern+Munich+x+1-0+x+Full+Matc&amp;tr=udp%3A%2F%2Ftracker.openbittorrent.com%3A80&amp;tr=udp%3A%2F%2Fopen.demonii.com%3A1337&amp;tr=udp%3A%2F%2Ftracker.coppersurfer.tk%3A6969&amp;tr=udp%3A%2F%2Fexodus.desync.com%3A6969","seeders":0,"leechers":0,"uploader":"m3zz0m1x","files":-1,"time":1398313143,"description":" &lt;a href=&quot;http://postimg.org/image/47l59v6xf/s&quot; rel=&quot;nofollow&quot; target=&quot;_NEW&quot;&gt;http://postimg.org/image/47l59v6xf/s&lt;/a&gt; L\n\nChampions League x Real Madrid x Bayern Munich x 1-0 x Full Match x German\n\n\nFormat                         : WebM\nFormat version                 : Version 2\nFile size                      : 1.11 GiB\nDuration                       : 2h 38mn\nOverall bit rate mode          : Variable\nOverall bit rate               : 1 005 Kbps\nWriting application            : Slipstream\nWriting library                : slipstream-webmmux-0.0.1.0\n\nVideo\nID                             : 1\nFormat                         : VP8\nCodec ID                       : V_VP8\nDuration                       : 2h 38mn\nBit rate                       : 892 Kbps\nWidth                          : 852 pixels\nHeight                         : 480 pixels\nDisplay aspect ratio           : 16:9\nFrame rate mode                : Constant\nFrame rate                     : 25.000 fps\nCompression mode               : Lossy\nBits/(Pixel*Frame)             : 0.087\nStream size                    : 1 011 MiB (89%)\nLanguage                       : English\nDefault                        : Yes\nForced                         : No\n\nAudio\nID                             : 2\nFormat                         : Vorbis\nFormat settings, Floor         : 1\nCodec ID                       : A_VORBIS\nDuration                       : 2h 38mn\nBit rate mode                  : Variable\nBit rate                       : 64.0 Kbps\nChannel(s)                     : 2 channels\nSampling rate                  : 48.0 KHz\nCompression mode               : Lossy\nStream size                    : 72.5 MiB (6%)\nWriting library                : libVorbis (Schaufenugget) (20101101 (Schaufenugget))\nLanguage                       : English\nDefault                        : Yes\nForced                         : No\n","torrent":{"xt":"urn:btih:674f79210447f7c3fe8758512767df8302e0f4d8","amp;dn":"Champions+League+x+Real+Madrid+x+Bayern+Munich+x+1-0+x+Full+Matc","amp;tr":["udp%3A%2F%2Ftracker.openbittorrent.com%3A80","udp%3A%2F%2Fopen.demonii.com%3A1337","udp%3A%2F%2Ftracker.coppersurfer.tk%3A6969","udp%3A%2F%2Fexodus.desync.com%3A6969"],"infoHash":"674f79210447f7c3fe8758512767df8302e0f4d8","infoHashBuffer":{"type":"Buffer","data":[103,79,121,33,4,71,247,195,254,135,88,81,39,103,223,131,2,224,244,216]},"announce":[],"urlList":[]}}